<?xml version="1.0" encoding="UTF-8" standalone="no"?>
<svg
   viewBox="0 0 122.87 122.87"
   version="1.1"
   id="svg4"
   sodipodi:docname="blockchain-icon.svg"
   width="122.87"
   height="122.87"
   inkscape:version="1.2.2 (732a01da63, 2022-12-09)"
   xmlns:inkscape="http://www.inkscape.org/namespaces/inkscape"
   xmlns:sodipodi="http://sodipodi.sourceforge.net/DTD/sodipodi-0.dtd"
   xmlns="http://www.w3.org/2000/svg"
   xmlns:svg="http://www.w3.org/2000/svg">
  <defs
     id="defs8" />
  <sodipodi:namedview
     id="namedview6"
     pagecolor="#505050"
     bordercolor="#eeeeee"
     borderopacity="1"
     inkscape:showpageshadow="0"
     inkscape:pageopacity="0"
     inkscape:pagecheckerboard="0"
     inkscape:deskcolor="#505050"
     showgrid="false"
     inkscape:zoom="4.9718447"
     inkscape:cx="27.655731"
     inkscape:cy="73.312829"
     inkscape:window-width="1811"
     inkscape:window-height="1051"
     inkscape:window-x="100"
     inkscape:window-y="-9"
     inkscape:window-maximized="1"
     inkscape:current-layer="svg4" />
  <path
     d="M 39.203,48.41668 59.368403,38.425402 V 19.640632 A 10.135393,8.991176 0 0 1 53.374767,16.563396 L 21.068408,33.147359 c 0.384208,0.954332 0.592777,1.976831 0.592777,3.048021 0,0.895904 -0.142706,1.752855 -0.417139,2.570855 z M 51.6623,13.963327 a 10.133198,8.9892284 0 0 1 -0.647664,-3.164879 c 0,-2.4832124 1.130667,-4.7327105 2.963886,-6.3589711 1.833218,-1.6262605 4.368987,-2.6292836 7.168213,-2.6292836 2.799226,0 5.334995,1.0030231 7.168214,2.6292836 a 10.104656,8.9639094 0 0 1 2.963886,6.3589711 c 0,1.090666 -0.219547,2.132641 -0.614732,3.096712 l 32.460047,16.652129 c 0.23052,-0.243452 0.46105,-0.486904 0.71353,-0.710881 a 10.104656,8.9639094 0 0 1 7.16821,-2.629283 c 2.79922,0 5.33499,1.003023 7.1682,2.629283 a 10.104656,8.9639094 0 0 1 2.96389,6.358972 c 0,2.483212 -1.13066,4.722972 -2.96389,6.349232 a 10.092581,8.9531975 0 0 1 -5.83994,2.55138 v 33.021854 c 2.27231,0.262928 4.30311,1.188046 5.83994,2.551378 1.83323,1.626261 2.96389,3.87576 2.96389,6.349234 a 10.123318,8.9804642 0 0 1 -10.13209,8.988254 10.104656,8.9639094 0 0 1 -7.84881,-3.301211 L 70.653125,109.3771 c 0.395185,0.96408 0.614732,2.00605 0.614732,3.09672 0,2.48321 -1.130667,4.73271 -2.963886,6.35897 a 10.104656,8.9639094 0 0 1 -7.168214,2.62928 c -2.799225,0 -5.334994,-1.00303 -7.168213,-2.62928 -1.833218,-1.62626 -2.963886,-3.87576 -2.963886,-6.35897 0,-1.11014 0.230525,-2.18134 0.647664,-3.16488 L 19.35594,92.744453 a 10.104656,8.9639094 0 0 1 -7.826854,3.271997 c -2.7992264,0 -5.3349957,-1.003023 -7.1682142,-2.629283 -1.8222411,-1.626261 -2.9529087,-3.87576 -2.9529087,-6.358971 0,-2.483212 1.1306676,-4.722972 2.963886,-6.349233 a 10.145273,8.9999403 0 0 1 5.7631119,-2.55138 V 45.086253 A 10.077213,8.9395641 0 0 1 4.3718491,42.534874 10.059649,8.9239833 0 0 1 1.4079631,36.185642 c 0,-2.483213 1.1306676,-4.732711 2.963886,-6.358971 a 10.104656,8.9639094 0 0 1 7.1682129,-2.629284 10.104656,8.9639094 0 0 1 7.859788,3.31095 z m 17.300313,2.541641 A 10.090385,8.9512498 0 0 1 62.87018,19.650369 V 38.425402 L 82.991674,48.76725 101.48852,39.282353 c -0.40616,-0.96407 -0.61473,-2.015784 -0.61473,-3.096711 0,-1.051714 0.20857,-2.074213 0.5818,-3.009069 z m 40.275917,28.532595 a 10.05416,8.9191142 0 0 1 -5.40085,-2.492951 c -0.20858,-0.185023 -0.40617,-0.370046 -0.59278,-0.574547 l -18.463917,9.465422 v 20.235744 l 18.540747,9.494636 c 0.16467,-0.165548 0.32933,-0.331095 0.50497,-0.486904 a 10.092581,8.9531975 0 0 1 5.40086,-2.492951 V 45.037563 Z m -7.76099,45.05813 c -0.39518,-0.954332 -0.60375,-1.98657 -0.60375,-3.05776 0,-1.129618 0.23052,-2.210545 0.66962,-3.213568 L 83.606406,74.641348 62.87018,85.333768 v 18.297862 a 10.090385,8.9512498 0 0 1 6.092433,3.14541 z M 53.374767,106.70887 a 10.135393,8.991176 0 0 1 5.993636,-3.07724 V 85.246125 L 38.555336,74.53423 20.89277,83.580913 c 0.493981,1.061451 0.779392,2.230021 0.779392,3.45702 0,1.090667 -0.219546,2.132642 -0.614731,3.096713 z M 13.219599,78.166536 c 2.118629,0.311619 4.017711,1.217261 5.4777,2.512427 0.109773,0.09738 0.20857,0.194761 0.307366,0.292142 l 17.991887,-9.21223 V 50.851201 L 19.674284,41.54159 c -0.296389,0.360309 -0.62571,0.691404 -0.976985,1.003022 a 10.159543,9.0125998 0 0 1 -5.4777,2.512427 z M 11.55104,42.067446 c 0.04391,0 0.08782,-0.0098 0.131728,-0.0098 h 0.08782 a 6.5864136,5.8428524 0 0 0 4.456807,-1.713904 6.6116615,5.86525 0 0 0 1.942992,-4.158163 c 0,-1.62626 -0.74646,-3.096712 -1.942992,-4.158164 -1.196531,-1.061451 -2.854113,-1.723641 -4.687332,-1.723641 -1.8332177,0 -3.4907985,0.66219 -4.6873303,1.723641 a 6.6116615,5.86525 0 0 0 -1.942991,4.158227 c 0,1.626261 0.7464601,3.096711 1.942992,4.158163 a 6.6193457,5.8720667 0 0 0 4.6983083,1.723641 z m 54.272048,66.267694 a 6.6116615,5.86525 0 0 0 -4.687331,-1.72365 c -1.833217,0 -3.490799,0.66219 -4.68733,1.72365 -1.196532,1.06145 -1.942992,2.53189 -1.942992,4.15816 0,1.62625 0.74646,3.09671 1.942992,4.15816 1.196531,1.06145 2.854113,1.72364 4.68733,1.72364 1.833219,0 3.4908,-0.66219 4.687331,-1.72364 1.196533,-1.06145 1.942992,-2.53191 1.942992,-4.15816 0,-1.62627 -0.735482,-3.09671 -1.942992,-4.15816 z m 0,-101.6948554 A 6.6116615,5.86525 0 0 0 61.135757,4.9166432 c -1.833217,0 -3.490799,0.6621899 -4.68733,1.7236414 -1.196532,1.0614516 -1.942992,2.5319028 -1.942992,4.1581634 0,1.62626 0.74646,3.096712 1.942992,4.158163 a 6.6116615,5.86525 0 0 0 4.68733,1.723642 c 1.833219,0 3.4908,-0.66219 4.687331,-1.723642 a 6.6116615,5.86525 0 0 0 1.942992,-4.158163 c 0,-1.6262606 -0.735482,-3.0967118 -1.942992,-4.1581634 z M 115.68224,82.87977 a 6.6116615,5.86525 0 0 0 -4.68734,-1.723641 c -1.83321,0 -3.49079,0.66219 -4.68733,1.723641 a 6.6116615,5.86525 0 0 0 -1.94299,4.158163 c 0,1.626261 0.74646,3.096713 1.94299,4.158164 a 6.6116615,5.86525 0 0 0 4.68733,1.723641 c 1.83323,0 3.49081,-0.662189 4.68734,-1.723641 a 6.6116615,5.86525 0 0 0 1.94299,-4.158164 c 0,-1.62626 -0.73548,-3.096711 -1.94299,-4.158163 z m -99.454846,0 c -1.196531,-1.061451 -2.854113,-1.723641 -4.687332,-1.723641 -1.8332178,0 -3.4907986,0.66219 -4.6873303,1.723641 a 6.6116615,5.86525 0 0 0 -1.942992,4.158163 c 0,1.626261 0.7464601,3.096713 1.942992,4.158164 1.1965317,1.061452 2.8541125,1.723641 4.6873303,1.723641 1.833219,0 3.490801,-0.662189 4.687332,-1.723641 A 6.6116615,5.86525 0 0 0 18.170386,87.037933 6.6577665,5.90615 0 0 0 16.227394,82.87977 Z M 105.08909,38.844139 c 0.0879,0.0779 0.15368,0.175286 0.21955,0.272667 0.0658,0.09738 0.10977,0.194761 0.15368,0.301881 0.25248,0.331095 0.53789,0.642713 0.84525,0.925118 a 6.6116615,5.86525 0 0 0 4.68733,1.723641 c 1.83323,0 3.49081,-0.66219 4.68734,-1.723641 a 6.6116615,5.86525 0 0 0 1.94299,-4.158163 c 0,-1.626261 -0.74646,-3.096712 -1.94299,-4.158164 a 6.6116615,5.86525 0 0 0 -4.68734,-1.723641 c -1.83321,0 -3.49079,0.66219 -4.68733,1.723641 a 6.6116615,5.86525 0 0 0 -1.94299,4.158164 c 0.011,0.964071 0.27444,1.859975 0.72451,2.658497 z M 40.278782,71.42778 a 1.85188,1.6428153 0 0 1 0.472026,0.856951 l 18.804211,9.806254 V 62.731668 L 40.278782,52.555366 Z M 81.50973,52.818294 62.837248,62.741405 V 82.110461 L 81.50973,72.323684 Z m -20.395927,-12.06549 -18.222411,9.669922 18.321207,9.786777 17.794294,-9.582278 z"
     fill-rule="evenodd"
     clip-rule="evenodd"
     id="path2"
     style="stroke-width:1.03391;fill:#ffffff"
     inkscape:label="path2" />
</svg>
