<svg width="36" height="36" viewBox="0 0 36 36" fill="none" xmlns="http://www.w3.org/2000/svg">
<g clip-path="url(#clip0_4054_14070)">
<path d="M18 36C27.9411 36 36 27.9411 36 18C36 8.05887 27.9411 0 18 0C8.05887 0 0 8.05887 0 18C0 27.9411 8.05887 36 18 36Z" fill="#EDF0F4" fill-opacity="0.09"/>
<path fill-rule="evenodd" clip-rule="evenodd" d="M21.1526 9.00257C21.1526 10.6608 19.7627 12.0051 18.0482 12.0051C16.3336 12.0051 14.9437 10.6608 14.9437 9.00257C14.9437 7.34429 16.3336 6 18.0482 6C19.7627 6 21.1526 7.34429 21.1526 9.00257ZM24.5848 21.9598V20.2001L28.5283 17.9971V24.1614L18.0142 30.0324L7.5 24.1614V17.9327L11.4435 20.1343V21.9598L18.0142 25.6291L24.5848 21.9598ZM21.7006 9.00257C21.7006 8.86316 21.6925 8.72638 21.6748 8.59223L28.5283 12.4194V16.2098L24.5848 18.4114V14.621L19.9383 12.0262C20.9949 11.4067 21.7006 10.2836 21.7006 9.00257ZM14.4283 8.55146C14.4065 8.69876 14.397 8.85001 14.397 9.00257C14.397 10.2704 15.0878 11.3831 16.1254 12.0064L11.4435 14.621V18.347L7.5 16.1453V12.4194L14.4283 8.55146ZM12.511 18.7415V16.432L18.0142 19.528L15.9391 20.6893L12.511 18.7415ZM18.0142 19.528L23.5174 16.432V18.7415L20.0893 20.6893L18.0142 19.528Z" fill="#146DF1"/>
</g>
<defs>
<clipPath id="clip0_4054_14070">
<rect width="36" height="36" fill="white"/>
</clipPath>
</defs>
</svg>
